<svg width="42" height="42" viewBox="0 0 42 42" fill="none" xmlns="http://www.w3.org/2000/svg">
<g id="battery 1">
<g id="Group">
<path id="Vector" fill-rule="evenodd" clip-rule="evenodd" d="M15.752 6.12544L16.2954 3.95106C16.4905 3.1723 17.1905 2.62543 17.9937 2.62543H24.0103C24.8135 2.62543 25.5135 3.1723 25.7086 3.95106L26.252 6.12544H28.002C28.4658 6.12544 28.9112 6.31007 29.2393 6.6382C29.5674 6.96632 29.752 7.4117 29.752 7.87545V37.6256C29.752 38.0894 29.5674 38.5347 29.2393 38.8629C28.9112 39.191 28.4658 39.3756 28.002 39.3756H14.002C13.5382 39.3756 13.0928 39.191 12.7647 38.8629C12.4366 38.5347 12.252 38.0894 12.252 37.6256V7.87545C12.252 7.4117 12.4366 6.96632 12.7647 6.6382C13.0928 6.31007 13.5382 6.12544 14.002 6.12544H15.752Z" fill="#EAF2FF"/>
<path id="Vector_2" fill-rule="evenodd" clip-rule="evenodd" d="M17.9918 2.6248C17.1885 2.6248 16.4885 3.17168 16.2934 3.95043C16.0458 4.94094 15.75 6.12482 15.75 6.12482L26.2501 6.12482C26.2501 6.12482 25.9543 4.94094 25.7067 3.95043C25.5115 3.17168 24.8115 2.6248 24.0083 2.6248C22.3677 2.6248 19.6324 2.6248 17.9918 2.6248Z" fill="#95D6A4"/>
<path id="Vector_3" fill-rule="evenodd" clip-rule="evenodd" d="M26.2501 32.3751C26.2501 31.8921 25.8581 31.5001 25.375 31.5001C23.3975 31.5001 18.6025 31.5001 16.625 31.5001C16.142 31.5001 15.75 31.8921 15.75 32.3751C15.75 32.9097 15.75 33.5904 15.75 34.1251C15.75 34.6081 16.142 35.0001 16.625 35.0001C18.6025 35.0001 23.3975 35.0001 25.375 35.0001C25.8581 35.0001 26.2501 34.6081 26.2501 34.1251C26.2501 33.5904 26.2501 32.9097 26.2501 32.3751Z" fill="#95D6A4"/>
<path id="Vector_4" fill-rule="evenodd" clip-rule="evenodd" d="M26.2501 25.3755C26.2501 24.8925 25.8581 24.5005 25.375 24.5005C23.3975 24.5005 18.6025 24.5005 16.625 24.5005C16.142 24.5005 15.75 24.8925 15.75 25.3755C15.75 25.9101 15.75 26.5909 15.75 27.1255C15.75 27.6085 16.142 28.0005 16.625 28.0005C18.6025 28.0005 23.3975 28.0005 25.375 28.0005C25.8581 28.0005 26.2501 27.6085 26.2501 27.1255C26.2501 26.5909 26.2501 25.9101 26.2501 25.3755Z" fill="#95D6A4"/>
<path id="Vector_5" fill-rule="evenodd" clip-rule="evenodd" d="M26.2501 18.3759C26.2501 17.8929 25.8581 17.5009 25.375 17.5009C23.3975 17.5009 18.6025 17.5009 16.625 17.5009C16.142 17.5009 15.75 17.8929 15.75 18.3759C15.75 18.9105 15.75 19.5913 15.75 20.1259C15.75 20.6089 16.142 21.0009 16.625 21.0009C18.6025 21.0009 23.3975 21.0009 25.375 21.0009C25.8581 21.0009 26.2501 20.6089 26.2501 20.1259C26.2501 19.5913 26.2501 18.9105 26.2501 18.3759Z" fill="#95D6A4"/>
<path id="Vector_6" fill-rule="evenodd" clip-rule="evenodd" d="M26.2501 11.3751C26.2501 10.8921 25.8581 10.5001 25.375 10.5001C23.3975 10.5001 18.6025 10.5001 16.625 10.5001C16.142 10.5001 15.75 10.8921 15.75 11.3751C15.75 11.9097 15.75 12.5904 15.75 13.1251C15.75 13.6081 16.142 14.0001 16.625 14.0001C18.6025 14.0001 23.3975 14.0001 25.375 14.0001C25.8581 14.0001 26.2501 13.6081 26.2501 13.1251C26.2501 12.5904 26.2501 11.9097 26.2501 11.3751Z" fill="#95D6A4"/>
</g>
</g>
</svg>
