<svg width="42" height="42" viewBox="0 0 42 42" fill="none" xmlns="http://www.w3.org/2000/svg">
<g id="bulb 1" clip-path="url(#clip0_1819_1665)">
<g id="Group">
<path id="Vector" d="M33.6632 20.9354C33.6632 13.9569 27.9771 8.27075 20.9986 8.27075C14.0201 8.27075 8.33398 13.9569 8.33398 20.9354C8.33398 26.3631 11.7586 30.9508 16.5401 32.76V34.9569H25.4571V32.76C30.2386 30.9508 33.6632 26.3631 33.6632 20.9354Z" fill="#FBD984"/>
<path id="Vector_2" d="M16.541 35.0215V38.3169C16.541 39.2861 17.3164 40.0615 18.2856 40.0615H23.7133C24.6826 40.0615 25.4579 39.2861 25.4579 38.3169V35.0215H16.541Z" fill="#788D9A"/>
<path id="Vector_3" d="M18.4141 39.9969C18.4141 40.9016 19.1894 41.6769 20.0941 41.6769H21.7094C22.6141 41.6769 23.3894 40.9016 23.3894 39.9969H18.4141Z" fill="#445C6C"/>
<g id="Group_2">
<path id="Vector_4" d="M6.58996 20.0953H0.322266V21.7753H6.58996V20.0953Z" fill="#FBD984"/>
<path id="Vector_5" d="M41.6759 20.0953H35.4082V21.7753H41.6759V20.0953Z" fill="#FBD984"/>
</g>
<g id="Group_3">
<path id="Vector_6" d="M20.1445 0.357373L20.127 6.56042L21.8069 6.56517L21.8245 0.362123L20.1445 0.357373Z" fill="#FBD984"/>
</g>
<g id="Group_4">
<path id="Vector_7" d="M10.1438 11.3723L5.75 6.91381L6.91308 5.75073L11.3715 10.2092L10.1438 11.3723Z" fill="#FBD984"/>
<path id="Vector_8" d="M34.9563 36.12L30.5625 31.6615L31.7256 30.4984L36.184 34.9569L34.9563 36.12Z" fill="#FBD984"/>
</g>
<g id="Group_5">
<path id="Vector_9" d="M30.5625 10.1446L34.9563 5.75073L36.184 6.91381L31.7256 11.3077L30.5625 10.1446Z" fill="#FBD984"/>
<path id="Vector_10" d="M5.75 34.763L10.1438 30.3691L11.3715 31.5322L6.91308 35.9261L5.75 34.763Z" fill="#FBD984"/>
</g>
<path id="Vector_11" d="M21.7101 11.5015C23.3901 13.1815 22.6793 16.6707 20.0947 19.2553C17.5101 21.84 14.0209 22.6153 12.3409 20.8707C10.6609 19.1907 11.3716 15.7015 13.9562 13.1169C16.5409 10.5323 20.0301 9.8215 21.7101 11.5015Z" fill="#FFE5AB"/>
</g>
</g>
<defs>
<clipPath id="clip0_1819_1665">
<rect width="42" height="42" fill="white"/>
</clipPath>
</defs>
</svg>
