<svg width="42" height="42" viewBox="0 0 42 42" fill="none" xmlns="http://www.w3.org/2000/svg">
<g id="energy 1">
<path id="Vector" d="M16.2221 40.278L19.6003 24.5H9.82971C9.56571 24.5 9.30687 24.4268 9.08198 24.2885C8.8571 24.1502 8.67497 23.9522 8.55586 23.7166C8.43675 23.481 8.38532 23.217 8.4073 22.9539C8.42927 22.6908 8.52377 22.439 8.68031 22.2264L24.2784 1.04999C24.3918 0.893513 24.5557 0.780916 24.7424 0.73118C24.9291 0.681445 25.1273 0.697611 25.3035 0.776954C25.4797 0.856298 25.6232 0.993965 25.7097 1.16675C25.7962 1.33954 25.8205 1.53687 25.7785 1.72549L22.4003 17.5H32.1709C32.4349 17.5 32.6938 17.5732 32.9186 17.7115C33.1435 17.8498 33.3257 18.0477 33.4448 18.2833C33.5639 18.5189 33.6153 18.783 33.5933 19.0461C33.5714 19.3092 33.4769 19.561 33.3203 19.7736L17.7222 40.9535C17.6088 41.11 17.445 41.2226 17.2582 41.2723C17.0715 41.322 16.8733 41.3059 16.6971 41.2265C16.5209 41.1472 16.3775 41.0095 16.2909 40.8367C16.2044 40.6639 16.1801 40.4666 16.2221 40.278Z" fill="#F9C153"/>
</g>
</svg>
