<svg width="42" height="42" viewBox="0 0 42 42" fill="none" xmlns="http://www.w3.org/2000/svg">
<g id="solar-panel 1" clip-path="url(#clip0_1819_1698)">
<path id="Vector" d="M32.003 36.876V37.716L26.123 41.16V40.32L32.003 36.876Z" fill="#A7A8B4"/>
<path id="Vector_2" d="M26.1232 40.32V41.16L15.0352 34.776V33.936L26.1232 40.32Z" fill="#7F7F83"/>
<path id="Vector_3" d="M32.0032 36.8759L26.1232 40.3199L15.0352 33.9359L20.9992 30.4919L32.0032 36.8759Z" fill="#C9CAD1"/>
<path id="Vector_4" d="M29.2312 36.036V36.54L25.5352 38.64V38.136L29.2312 36.036Z" fill="#A7A8B4"/>
<path id="Vector_5" d="M25.5366 38.1359V38.6399L17.8926 34.2719V33.7679L25.5366 38.1359Z" fill="#7F7F83"/>
<path id="Vector_6" d="M29.2326 36.036L25.5366 38.136L17.8926 33.768L21.5886 31.584L29.2326 36.036Z" fill="#EDEDF4"/>
<g id="Group">
<path id="Vector_7" d="M25.1156 17.3879V34.6919L23.0996 35.7839L23.1836 18.5639L25.1156 17.3879Z" fill="#B7B7BC"/>
<path id="Vector_8" d="M23.1838 18.564L23.0998 35.952L22.0078 35.28V17.892L23.1838 18.564Z" fill="#7F7F83"/>
<path id="Vector_9" d="M25.1158 17.3879L23.1838 18.5639L22.0078 17.8919L24.0238 16.7159L25.1158 17.3879Z" fill="#CCCCD2"/>
</g>
<path id="Vector_10" d="M41.1602 11.256V12.516L19.8242 28.392V27.132L41.1602 11.256Z" fill="#D7D9E1"/>
<path id="Vector_11" d="M19.8238 27.1319V28.3919L0.839844 17.9759V16.7159L19.8238 27.1319Z" fill="#7F7F83"/>
<path id="Vector_12" d="M41.1598 11.256L19.8238 27.132L0.839844 16.716L22.1758 0.839966L41.1598 11.256Z" fill="#EDEDF4"/>
<path id="Vector_13" d="M18.2275 20.916L15.1195 19.236C14.9515 19.236 14.7835 19.236 14.6155 19.236L11.8435 21.336C11.8435 21.588 11.8435 21.756 11.9275 22.008L15.0355 23.688C15.2035 23.688 15.3715 23.688 15.5395 23.688L18.3115 21.588C18.3115 21.252 18.3115 21.168 18.2275 20.916ZM13.6915 18.396L10.5835 16.716C10.4155 16.716 10.2475 16.716 10.0795 16.716L7.30748 18.816C7.30748 19.068 7.30748 19.236 7.39148 19.488L10.4995 21.168C10.6675 21.168 10.8355 21.168 11.0035 21.168L13.7755 19.068C13.7755 18.732 13.7755 18.648 13.6915 18.396ZM14.1955 13.608L11.4235 15.708C11.4235 15.96 11.4235 16.128 11.5075 16.38L14.6155 18.06C14.7835 18.06 14.9515 18.06 15.1195 18.06L17.8915 15.96C17.8915 15.708 17.8915 15.54 17.8075 15.288L14.6995 13.608C14.5315 13.608 14.3635 13.608 14.1955 13.608ZM23.7715 18.564C23.6035 18.564 23.4355 18.564 23.2675 18.564L20.4955 20.664C20.4955 20.916 20.4955 21.084 20.5795 21.336L23.6875 23.016C23.8555 23.016 24.0235 23.016 24.1915 23.016L26.9635 20.916C26.9635 20.664 26.9635 20.496 26.8795 20.244L23.7715 18.564ZM19.1515 20.58C19.3195 20.58 19.4875 20.58 19.6555 20.58L22.4275 18.48C22.4275 18.228 22.4275 18.06 22.3435 17.808L19.2355 16.128C19.0675 16.128 18.8995 16.128 18.7315 16.128L15.9595 18.228C15.9595 18.48 15.9595 18.648 16.0435 18.9L19.1515 20.58ZM23.6875 17.472L26.4595 15.372C26.4595 15.12 26.4595 14.952 26.3755 14.7L23.2675 13.02C23.0995 13.02 22.9315 13.02 22.7635 13.02L20.0755 15.12C20.0755 15.372 20.0755 15.54 20.1595 15.792L23.2675 17.472C23.3515 17.472 23.5195 17.472 23.6875 17.472ZM18.3115 10.5L15.5395 12.6C15.5395 12.852 15.5395 13.02 15.6235 13.272L18.7315 14.952C18.8995 14.952 19.0675 14.952 19.2355 14.952L22.0075 12.852C22.0075 12.6 22.0075 12.432 21.9235 12.18L18.8155 10.5C18.6475 10.5 18.4795 10.5 18.3115 10.5ZM27.8875 15.456C27.7195 15.456 27.5515 15.456 27.3835 15.456L24.6115 17.64C24.6115 17.892 24.6115 18.06 24.6955 18.312L27.8035 19.992C27.9715 19.992 28.1395 19.992 28.3075 19.992L31.0795 17.892C31.0795 17.64 31.0795 17.472 30.9955 17.22L27.8875 15.456ZM23.2675 11.844L26.0395 9.74402C26.0395 9.49202 26.0395 9.32402 25.9555 9.07202L22.8475 7.39202C22.6795 7.39202 22.5115 7.39202 22.3435 7.39202L19.5715 9.49202C19.5715 9.74402 19.5715 9.91202 19.6555 10.164L22.7635 11.844C22.9315 11.928 23.0995 11.928 23.2675 11.844ZM9.15548 15.876L6.04748 14.196C5.87948 14.196 5.71148 14.196 5.54348 14.196L2.77148 16.296C2.77148 16.548 2.77148 16.716 2.85548 16.968L5.96348 18.648C6.13148 18.648 6.29948 18.648 6.46748 18.648L9.23948 16.548C9.23948 16.296 9.23948 16.212 9.15548 15.876ZM10.0795 15.624C10.2475 15.624 10.4155 15.624 10.5835 15.624L13.3555 13.524C13.3555 13.272 13.3555 13.104 13.2715 12.852L10.1635 11.172C9.99548 11.172 9.82748 11.172 9.65948 11.172L6.88748 13.272C6.88748 13.524 6.88748 13.692 6.97148 13.944L10.0795 15.624ZM14.1115 12.516C14.2795 12.516 14.4475 12.516 14.6155 12.516L17.3875 10.416C17.3875 10.164 17.3875 9.99602 17.3035 9.74402L14.1955 8.06402C14.0275 8.06402 13.8595 8.06402 13.6915 8.06402L10.9195 10.164C10.9195 10.416 10.9195 10.584 11.0035 10.836L14.1115 12.516ZM18.2275 9.40802C18.3955 9.40802 18.5635 9.40802 18.7315 9.40802L21.5035 7.30802C21.5035 7.05602 21.5035 6.88802 21.4195 6.63602L18.3115 4.95602C18.1435 4.95602 17.9755 4.95602 17.8075 4.95602L15.0355 7.05602C15.0355 7.30802 15.0355 7.47602 15.1195 7.72802L18.2275 9.40802ZM32.0035 12.348C31.8355 12.348 31.6675 12.348 31.4995 12.348L28.7275 14.448C28.7275 14.7 28.7275 14.868 28.8115 15.12L31.9195 16.8C32.0875 16.8 32.2555 16.8 32.4235 16.8L35.1955 14.7C35.1955 14.448 35.1955 14.28 35.1115 14.028L32.0035 12.348ZM27.8035 14.364L30.5755 12.264C30.5755 12.012 30.5755 11.844 30.4915 11.592L27.3835 9.91202C27.2155 9.91202 27.0475 9.91202 26.8795 9.91202L24.1075 12.012C24.1075 12.264 24.1075 12.432 24.1915 12.684L27.2995 14.364C27.4675 14.364 27.6355 14.364 27.8035 14.364ZM23.7715 7.14002L26.8795 8.82002C27.0475 8.82002 27.2155 8.82002 27.3835 8.82002L30.1555 6.72002C30.1555 6.46802 30.1555 6.30002 30.0715 6.04802L26.9635 4.36802C26.7955 4.36802 26.6275 4.36802 26.4595 4.36802L23.6875 6.46802C23.6875 6.72002 23.6875 6.80402 23.7715 7.14002ZM22.3435 6.30002C22.5115 6.30002 22.6795 6.30002 22.8475 6.30002L25.6195 4.20002C25.6195 3.94802 25.6195 3.78002 25.5355 3.52802L22.4275 1.84802C22.2595 1.84802 22.0915 1.84802 21.9235 1.84802L19.1515 3.94802C19.1515 4.20002 19.1515 4.36802 19.2355 4.62002L22.3435 6.30002ZM39.1435 10.92L36.0355 9.24002C35.8675 9.24002 35.6995 9.24002 35.5315 9.24002L32.7595 11.424C32.7595 11.676 32.7595 11.844 32.8435 12.096L35.9515 13.776C36.1195 13.776 36.2875 13.776 36.4555 13.776L39.2275 11.676C39.2275 11.34 39.2275 11.256 39.1435 10.92ZM28.3075 9.57602L31.4155 11.256C31.5835 11.256 31.7515 11.256 31.9195 11.256L34.6915 9.15602C34.6915 8.90402 34.6915 8.73602 34.6075 8.48402L31.4995 6.80402C31.3315 6.80402 31.1635 6.80402 30.9955 6.80402L28.2235 8.90402C28.2235 9.24002 28.2235 9.32402 28.3075 9.57602ZM19.6555 21.672C19.4875 21.672 19.3195 21.672 19.1515 21.672L16.3795 23.772C16.3795 24.024 16.3795 24.192 16.4635 24.444L19.5715 26.124C19.7395 26.124 19.9075 26.124 20.0755 26.124L22.8475 24.024C22.8475 23.772 22.8475 23.604 22.7635 23.352L19.6555 21.672Z" fill="#0096D1"/>
</g>
<defs>
<clipPath id="clip0_1819_1698">
<rect width="42" height="42" fill="white"/>
</clipPath>
</defs>
</svg>
