<?xml version="1.0" encoding="UTF-8" standalone="no"?>
<svg width="483.40671" height="109.43793" overflow="hidden" version="1.1" id="svg2" xmlns="http://www.w3.org/2000/svg"
   xmlns:svg="http://www.w3.org/2000/svg">
   <mask id="arrow-reveal">
      <rect width="484" height="100%" x="-29.21871" fill="white" y="0" id="slider">
         <animateMotion id="arrowSlideAnimation" begin="0;panningAnimation.end" path="M -903,-58.4376 L 0,0" dur="1s"
            keySplines="0.15,0.32,0.26,0.88" keyTimes="0;1" calcMode="spline" />
         <animateTransform begin="0;panningAnimation.end" attributeName="transform" attributeType="XML" type="skewX"
            from="-30" to="0" dur="1s" keySplines="0.15,0.32,0.26,0.88" keyTimes="0;1" calcMode="spline" />
         <animateTransform begin="0;panningAnimation.end" attributeName="transform" attributeType="XML" type="scale"
            from="2" to="1" dur="1s" keySplines="0.15,0.32,0.26,0.88" keyTimes="0;1" calcMode="spline" additive="sum" />
      </rect>
   </mask>
   <g>
      <path d="M 454.188,29.2188 l 29.219,29.2188 -29.219,29.2187 z"
         fill="white" id="arrow"> 
         <animateMotion id="arrowSlideAnimation" begin="0;panningAnimation.end" path="M -903,-58.4376 L 0,0" dur="1s"
            keySplines="0.15,0.32,0.26,0.88" keyTimes="0;1" calcMode="spline" />
         <animateTransform begin="0;panningAnimation.end" attributeName="transform" attributeType="XML" type="skewX"
            from="-30" to="0" dur="1s" keySplines="0.15,0.32,0.26,0.88" keyTimes="0;1" calcMode="spline" />
         <animateTransform begin="0;panningAnimation.end" attributeName="transform" attributeType="XML" type="scale"
            from="2" to="1" dur="1s" keySplines="0.15,0.32,0.26,0.88" keyTimes="0;1" calcMode="spline" additive="sum" />
      </path>
      <g mask="url(#arrow-reveal)" id="g1">
         <path
            d="m 28.5228,74.961 c 0,1.9792 -0.3776,3.7239 -1.1328,5.2344 -0.7292,1.5104 -1.7708,2.7734 -3.125,3.789 -1.3542,1.0156 -2.9557,1.7709 -4.8047,2.2657 -1.8489,0.5208 -3.8541,0.7812 -6.0156,0.7812 -1.3021,0 -2.5521,-0.1042 -3.75,-0.3125 C 8.52283,86.5365 7.46814,86.3021 6.53064,86.0157 5.59314,85.7032 4.81189,85.3907 4.18689,85.0782 3.56189,84.7657 3.10616,84.4792 2.8197,84.2188 2.53324,83.9323 2.31189,83.5027 2.15564,82.9297 1.99939,82.3308 1.92126,81.4584 1.92126,80.3126 c 0,-0.7553 0.02603,-1.3542 0.0781,-1.7969 0.05207,-0.4688 0.13019,-0.8334 0.23437,-1.0938 0.10417,-0.2864 0.23438,-0.4687 0.39063,-0.5468 0.15625,-0.1042 0.35156,-0.1563 0.58594,-0.1563 0.28645,0 0.70312,0.1693 1.25,0.5078 0.57291,0.3125 1.27604,0.6641 2.10937,1.0547 0.83333,0.3906 1.79688,0.7552 2.89063,1.0938 1.1198,0.3385 2.3828,0.5078 3.7891,0.5078 0.8854,0 1.6666,-0.0912 2.3437,-0.2735 0.7031,-0.1823 1.3021,-0.4427 1.7969,-0.7812 0.5208,-0.3386 0.9114,-0.7683 1.1719,-1.2891 0.2604,-0.5208 0.3906,-1.1198 0.3906,-1.7969 0,-0.7812 -0.2474,-1.4453 -0.7422,-1.9921 -0.4688,-0.573 -1.1068,-1.0678 -1.9141,-1.4844 C 15.515,71.849 14.6165,71.4584 13.6009,71.0938 12.6113,70.7292 11.5827,70.3256 10.515,69.8829 9.47331,69.4402 8.44467,68.9323 7.42905,68.3594 6.43946,67.7865 5.54102,67.0834 4.73373,66.2501 3.95248,65.4167 3.31446,64.4141 2.81967,63.2422 2.35092,62.0704 2.11655,60.6641 2.11655,59.0235 c 0,-1.6667 0.32552,-3.1901 0.97656,-4.5703 0.65104,-1.4063 1.58854,-2.6042 2.8125,-3.5938 1.22396,-0.9896 2.70833,-1.7578 4.45309,-2.3047 1.7709,-0.5468 3.75,-0.8203 5.9375,-0.8203 1.0938,0 2.1485,0.0782 3.1641,0.2344 1.0417,0.1563 1.9792,0.3516 2.8125,0.5859 0.8333,0.2344 1.5364,0.4948 2.1094,0.7813 0.5729,0.2604 0.9765,0.4948 1.2109,0.7031 0.2604,0.1823 0.4427,0.3776 0.5469,0.586 0.1041,0.1822 0.1823,0.4166 0.2344,0.7031 0.052,0.2604 0.0911,0.5989 0.1171,1.0156 0.0521,0.3906 0.0781,0.8854 0.0781,1.4844 0,0.7031 -0.026,1.276 -0.0781,1.7187 -0.026,0.4427 -0.0911,0.7943 -0.1953,1.0547 -0.0781,0.2604 -0.1953,0.4427 -0.3515,0.5469 -0.1563,0.0781 -0.3386,0.1172 -0.5469,0.1172 -0.2344,0 -0.599,-0.1302 -1.0938,-0.3906 -0.4947,-0.2865 -1.1197,-0.586 -1.875,-0.8985 -0.7291,-0.3125 -1.5885,-0.5989 -2.5781,-0.8594 -0.9635,-0.2864 -2.0703,-0.4296 -3.3203,-0.4296 -0.8854,0 -1.6536,0.0911 -2.3047,0.2734 -0.651,0.1823 -1.1849,0.4427 -1.6015,0.7812 -0.4167,0.3386 -0.7292,0.7422 -0.9375,1.211 -0.2084,0.4427 -0.3125,0.9245 -0.3125,1.4453 0,0.8073 0.2474,1.4844 0.7422,2.0312 0.4947,0.5469 1.1458,1.0287 1.9531,1.4454 0.8073,0.4166 1.7187,0.8072 2.7343,1.1718 1.0417,0.3646 2.0834,0.7683 3.125,1.211 1.0678,0.4166 2.1094,0.9114 3.125,1.4843 1.0417,0.573 1.9662,1.2761 2.7735,2.1094 0.8073,0.8333 1.4583,1.836 1.9531,3.0078 0.4948,1.1459 0.7422,2.513 0.7422,4.1016 z m 41.6406,-7.9297 c 0,2.9688 -0.3906,5.6771 -1.1718,8.125 -0.7813,2.4479 -1.9662,4.5573 -3.5547,6.3281 -1.5886,1.7709 -3.5807,3.138 -5.9766,4.1016 -2.3958,0.9635 -5.1953,1.4453 -8.3984,1.4453 -3.099,0 -5.7943,-0.4297 -8.086,-1.2891 -2.2916,-0.8593 -4.1927,-2.1093 -5.7031,-3.75 -1.5104,-1.6406 -2.6302,-3.6588 -3.3594,-6.0546 -0.7291,-2.3959 -1.0937,-5.1303 -1.0937,-8.2032 0,-2.9687 0.3906,-5.6771 1.1719,-8.125 0.8073,-2.4739 2.0052,-4.5833 3.5937,-6.3281 1.5886,-1.7708 3.5677,-3.138 5.9375,-4.1016 2.3959,-0.9635 5.1953,-1.4453 8.3985,-1.4453 3.125,0 5.8333,0.4297 8.125,1.2891 2.2916,0.8333 4.1796,2.0703 5.664,3.7109 1.5104,1.6406 2.6302,3.6589 3.3594,6.0547 0.7292,2.3958 1.0937,5.1432 1.0937,8.2422 z m -10.1171,0.3906 c 0,-1.7187 -0.1433,-3.2942 -0.4297,-4.7265 -0.2604,-1.4584 -0.7162,-2.7214 -1.3672,-3.7891 -0.6511,-1.0677 -1.5235,-1.901 -2.6172,-2.5 -1.0677,-0.599 -2.4219,-0.8984 -4.0625,-0.8984 -1.4583,0 -2.7344,0.2734 -3.8281,0.8203 -1.0938,0.5208 -1.9922,1.3021 -2.6953,2.3437 -0.7032,1.0156 -1.237,2.2526 -1.6016,3.711 -0.3385,1.4323 -0.5078,3.0729 -0.5078,4.9218 0,1.7188 0.1432,3.3073 0.4297,4.7657 0.2864,1.4323 0.7422,2.6823 1.3672,3.75 0.651,1.0677 1.5234,1.901 2.6171,2.5 1.0938,0.5729 2.448,0.8593 4.0625,0.8593 1.4844,0 2.7735,-0.2604 3.8672,-0.7812 1.0938,-0.5469 1.9922,-1.3281 2.6953,-2.3438 0.7032,-1.0156 1.224,-2.2395 1.5625,-3.6718 0.3386,-1.4584 0.5079,-3.112 0.5079,-4.961 z m 26.4453,17.3828 c 0,0.2605 -0.0782,0.4948 -0.2344,0.7032 -0.1563,0.1823 -0.4297,0.3385 -0.8203,0.4687 -0.3646,0.1302 -0.8594,0.2214 -1.4844,0.2735 -0.625,0.0781 -1.4193,0.1171 -2.3828,0.1171 -0.9635,0 -1.7578,-0.039 -2.3828,-0.1171 -0.625,-0.0521 -1.1328,-0.1433 -1.5235,-0.2735 -0.3645,-0.1302 -0.625,-0.2864 -0.7812,-0.4687 -0.1563,-0.2084 -0.2344,-0.4427 -0.2344,-0.7032 V 33.4376 c 0,-0.2605 0.0781,-0.4948 0.2344,-0.7032 0.1562,-0.2083 0.4167,-0.3776 0.7812,-0.5078 0.3907,-0.1562 0.8985,-0.2734 1.5235,-0.3515 0.625,-0.0782 1.4193,-0.1172 2.3828,-0.1172 0.9635,0 1.7578,0.039 2.3828,0.1172 0.625,0.0781 1.1198,0.1953 1.4844,0.3515 0.3906,0.1302 0.664,0.2995 0.8203,0.5078 0.1562,0.2084 0.2344,0.4427 0.2344,0.7032 z m 37.5004,0.1172 c 0,0.3646 -0.131,0.6511 -0.391,0.8594 -0.26,0.2083 -0.677,0.3516 -1.25,0.4297 -0.547,0.1042 -1.367,0.1562 -2.461,0.1562 -1.172,0 -2.031,-0.052 -2.578,-0.1562 -0.521,-0.0781 -0.899,-0.2214 -1.133,-0.4297 -0.208,-0.2083 -0.312,-0.4948 -0.312,-0.8594 v -2.7734 c -1.433,1.5364 -3.073,2.7344 -4.922,3.5937 -1.823,0.8594 -3.854,1.2891 -6.094,1.2891 -1.849,0 -3.555,-0.2474 -5.1172,-0.7422 -1.5365,-0.4687 -2.8776,-1.1719 -4.0235,-2.1094 -1.1198,-0.9635 -1.9922,-2.1484 -2.6172,-3.5546 -0.625,-1.4063 -0.9375,-3.0469 -0.9375,-4.9219 0,-2.0313 0.3907,-3.7891 1.1719,-5.2735 0.8073,-1.5104 1.9922,-2.7474 3.5547,-3.7109 1.5885,-0.9896 3.5548,-1.7187 5.8988,-2.1875 2.343,-0.4687 5.065,-0.7031 8.164,-0.7031 h 3.398 v -2.1094 c 0,-1.0937 -0.117,-2.0443 -0.351,-2.8516 -0.209,-0.8333 -0.573,-1.5234 -1.094,-2.0703 -0.495,-0.5468 -1.172,-0.9505 -2.031,-1.2109 -0.834,-0.2604 -1.875,-0.3906 -3.125,-0.3906 -1.641,0 -3.112,0.1823 -4.414,0.5468 -1.277,0.3646 -2.409,0.7683 -3.3989,1.211 -0.9896,0.4427 -1.8229,0.8463 -2.5,1.2109 -0.6511,0.3646 -1.1849,0.5469 -1.6016,0.5469 -0.2864,0 -0.5469,-0.0912 -0.7812,-0.2734 -0.2084,-0.1823 -0.3907,-0.4428 -0.5469,-0.7813 -0.1302,-0.3385 -0.2344,-0.7552 -0.3125,-1.25 -0.0781,-0.4948 -0.1172,-1.0417 -0.1172,-1.6406 0,-0.8073 0.0651,-1.4453 0.1953,-1.9141 0.1302,-0.4687 0.3776,-0.8854 0.7422,-1.25 0.3646,-0.3906 1.0026,-0.8073 1.9141,-1.25 0.9114,-0.4687 1.9791,-0.8984 3.2027,-1.289 1.224,-0.3907 2.552,-0.7032 3.985,-0.9375 1.458,-0.2605 2.955,-0.3907 4.492,-0.3907 2.734,0 5.065,0.2735 6.992,0.8203 1.953,0.5209 3.555,1.3412 4.805,2.461 1.25,1.0937 2.161,2.513 2.734,4.2578 0.573,1.7448 0.86,3.8151 0.86,6.2109 z m -9.649,-14.9218 h -3.75 c -1.588,0 -2.943,0.1171 -4.062,0.3515 -1.12,0.2344 -2.032,0.586 -2.735,1.0547 -0.703,0.4688 -1.224,1.0417 -1.562,1.7188 -0.313,0.651 -0.469,1.4062 -0.469,2.2656 0,1.4583 0.456,2.6041 1.367,3.4375 0.938,0.8333 2.227,1.25 3.867,1.25 1.381,0 2.644,-0.3516 3.789,-1.0547 1.172,-0.7031 2.357,-1.7318 3.555,-3.0859 z m 40,-16.7969 c 0,0.9375 -0.026,1.7057 -0.078,2.3047 -0.052,0.5989 -0.13,1.0677 -0.234,1.4062 -0.104,0.3386 -0.248,0.5729 -0.43,0.7031 -0.156,0.1302 -0.365,0.1954 -0.625,0.1954 -0.208,0 -0.443,-0.0391 -0.703,-0.1172 -0.261,-0.1042 -0.56,-0.2084 -0.899,-0.3125 -0.312,-0.1042 -0.664,-0.1954 -1.054,-0.2735 -0.391,-0.1041 -0.821,-0.1562 -1.289,-0.1562 -0.547,0 -1.094,0.1172 -1.641,0.3515 -0.547,0.2084 -1.12,0.5469 -1.719,1.0157 -0.573,0.4687 -1.185,1.0937 -1.836,1.875 -0.625,0.7812 -1.302,1.7448 -2.031,2.8906 v 21.7187 c 0,0.2605 -0.078,0.4948 -0.234,0.7032 -0.157,0.1823 -0.43,0.3385 -0.821,0.4687 -0.364,0.1302 -0.859,0.2214 -1.484,0.2735 -0.625,0.0781 -1.419,0.1171 -2.383,0.1171 -0.963,0 -1.758,-0.039 -2.383,-0.1171 -0.625,-0.0521 -1.132,-0.1433 -1.523,-0.2735 -0.365,-0.1302 -0.625,-0.2864 -0.781,-0.4687 -0.157,-0.2084 -0.235,-0.4427 -0.235,-0.7032 V 49.961 c 0,-0.2604 0.065,-0.4818 0.196,-0.6641 0.13,-0.2083 0.364,-0.3776 0.703,-0.5078 0.338,-0.1302 0.768,-0.2213 1.289,-0.2734 0.547,-0.0782 1.224,-0.1172 2.031,-0.1172 0.833,0 1.524,0.039 2.07,0.1172 0.547,0.0521 0.964,0.1432 1.25,0.2734 0.313,0.1302 0.534,0.2995 0.664,0.5078 0.131,0.1823 0.196,0.4037 0.196,0.6641 v 4.3359 c 0.911,-1.3021 1.771,-2.3698 2.578,-3.2031 0.807,-0.8594 1.575,-1.5365 2.305,-2.0312 0.729,-0.4948 1.458,-0.8334 2.187,-1.0157 0.729,-0.2083 1.458,-0.3125 2.188,-0.3125 0.338,0 0.703,0.0261 1.093,0.0782 0.391,0.026 0.795,0.0911 1.211,0.1953 0.417,0.0781 0.782,0.1823 1.094,0.3125 0.313,0.1041 0.534,0.2213 0.664,0.3515 0.156,0.1302 0.261,0.2735 0.313,0.4297 0.078,0.1563 0.143,0.3776 0.195,0.6641 0.052,0.2604 0.091,0.664 0.117,1.2109 0.026,0.5469 0.039,1.2891 0.039,2.2266 z"
            id="text1" fill="white" aria-label="solar" />
         <path
            d="m 222.382,63.5938 c -0.808,0.0781 -1.524,0.1693 -2.149,0.2734 -0.625,0.1042 -1.406,0.3125 -2.344,0.625 -1.067,0.3386 -1.77,0.8985 -2.109,1.6797 -0.339,0.7813 -0.508,1.6016 -0.508,2.461 v 6.4453 c 0,1.3021 0.013,2.3567 0.039,3.164 0.026,0.7813 0.065,1.7578 0.117,2.9297 -2.604,1.5625 -6.458,3.0339 -11.562,4.4141 -5.078,1.3802 -9.753,2.0703 -14.023,2.0703 -4.011,0 -7.774,-0.612 -11.29,-1.8359 -3.515,-1.224 -6.601,-3.0599 -9.257,-5.5078 -2.657,-2.4219 -4.753,-5.4297 -6.289,-9.0235 -1.511,-3.5937 -2.266,-7.7083 -2.266,-12.3437 0,-4.323 0.716,-8.3203 2.148,-11.9922 1.433,-3.6719 3.503,-6.836 6.211,-9.4922 2.657,-2.6302 5.886,-4.6615 9.688,-6.0938 3.828,-1.4323 8.06,-2.1484 12.695,-2.1484 3.151,0 6.068,0.3906 8.75,1.1719 2.682,0.7552 4.896,1.5755 6.641,2.4609 l 2.422,-2.1484 h 3.398 l 0.352,20.2344 h -3.438 c -1.979,-6.0678 -4.349,-10.573 -7.109,-13.5157 -2.761,-2.9427 -6.25,-4.414 -10.469,-4.414 -5,0 -8.867,2.1875 -11.602,6.5625 -2.708,4.375 -4.062,10.4036 -4.062,18.0859 0,8.151 1.328,14.5312 3.984,19.1406 2.683,4.6094 6.472,6.9141 11.368,6.9141 2.291,0 4.322,-0.3386 6.093,-1.0156 1.797,-0.7032 3.19,-1.5105 4.18,-2.4219 v -11.25 c 0,-0.9375 -0.169,-1.7188 -0.508,-2.3438 -0.338,-0.651 -1.015,-1.2109 -2.031,-1.6797 -0.781,-0.3645 -1.758,-0.664 -2.93,-0.8984 -1.172,-0.2344 -2.148,-0.4036 -2.929,-0.5078 v -3.0469 h 28.789 z m 63.007,22.5391 H 255.194 V 83.086 c 1.406,-0.1042 3.06,-0.3516 4.961,-0.7422 1.901,-0.4167 2.852,-0.9245 2.852,-1.5234 0,-0.2084 -0.026,-0.4427 -0.079,-0.7032 -0.026,-0.2604 -0.13,-0.6119 -0.312,-1.0546 l -4.727,-11.4844 h -19.14 c -0.443,1.0677 -0.938,2.3177 -1.485,3.75 -0.52,1.4323 -0.976,2.7083 -1.367,3.8281 -0.495,1.4583 -0.794,2.513 -0.898,3.1641 -0.078,0.651 -0.117,1.1067 -0.117,1.3672 0,0.8333 0.625,1.5494 1.875,2.1484 1.276,0.5729 3.385,0.9896 6.328,1.25 v 3.0469 H 220.35 V 83.086 c 0.86,-0.0521 1.823,-0.1823 2.891,-0.3906 1.094,-0.2344 1.953,-0.5469 2.578,-0.9375 1.068,-0.625 1.966,-1.3933 2.695,-2.3047 0.756,-0.9115 1.381,-1.9922 1.875,-3.2422 3.021,-7.3177 6.042,-14.6484 9.063,-21.9922 3.047,-7.3438 6.406,-15.4427 10.078,-24.2969 h 7.813 c 5.104,12.5521 9.101,22.474 11.992,29.7657 2.89,7.2916 5.351,13.3333 7.383,18.125 0.338,0.7812 0.768,1.4973 1.289,2.1484 0.52,0.625 1.263,1.2239 2.226,1.7969 0.729,0.4166 1.576,0.7291 2.539,0.9375 0.964,0.2083 1.836,0.3385 2.617,0.3906 z M 256.288,63.711 248.241,43.6329 240.311,63.711 Z m 91.328,-0.1172 c -0.807,0.0781 -1.523,0.1693 -2.148,0.2734 -0.625,0.1042 -1.407,0.3125 -2.344,0.625 -1.068,0.3386 -1.771,0.8985 -2.11,1.6797 -0.338,0.7813 -0.507,1.6016 -0.507,2.461 v 6.4453 c 0,1.3021 0.013,2.3567 0.039,3.164 0.026,0.7813 0.065,1.7578 0.117,2.9297 -2.604,1.5625 -6.458,3.0339 -11.563,4.4141 -5.078,1.3802 -9.752,2.0703 -14.023,2.0703 -4.01,0 -7.774,-0.612 -11.289,-1.8359 -3.516,-1.224 -6.602,-3.0599 -9.258,-5.5078 -2.656,-2.4219 -4.753,-5.4297 -6.289,-9.0235 -1.51,-3.5937 -2.266,-7.7083 -2.266,-12.3437 0,-4.323 0.717,-8.3203 2.149,-11.9922 1.432,-3.6719 3.502,-6.836 6.211,-9.4922 2.656,-2.6302 5.885,-4.6615 9.687,-6.0938 3.828,-1.4323 8.06,-2.1484 12.696,-2.1484 3.151,0 6.067,0.3906 8.75,1.1719 2.682,0.7552 4.895,1.5755 6.64,2.4609 l 2.422,-2.1484 h 3.398 l 0.352,20.2344 h -3.437 c -1.98,-6.0678 -4.349,-10.573 -7.11,-13.5157 -2.76,-2.9427 -6.25,-4.414 -10.469,-4.414 -5,0 -8.867,2.1875 -11.601,6.5625 -2.709,4.375 -4.063,10.4036 -4.063,18.0859 0,8.151 1.328,14.5312 3.985,19.1406 2.682,4.6094 6.471,6.9141 11.367,6.9141 2.292,0 4.323,-0.3386 6.094,-1.0156 1.797,-0.7032 3.19,-1.5105 4.179,-2.4219 v -11.25 c 0,-0.9375 -0.169,-1.7188 -0.507,-2.3438 -0.339,-0.651 -1.016,-1.2109 -2.032,-1.6797 -0.781,-0.3645 -1.758,-0.664 -2.929,-0.8984 -1.172,-0.2344 -2.149,-0.4036 -2.93,-0.5078 v -3.0469 h 28.789 z m 63.008,22.5391 H 380.428 V 83.086 c 1.407,-0.1042 3.06,-0.3516 4.961,-0.7422 1.901,-0.4167 2.852,-0.9245 2.852,-1.5234 0,-0.2084 -0.026,-0.4427 -0.078,-0.7032 -0.026,-0.2604 -0.13,-0.6119 -0.313,-1.0546 l -4.726,-11.4844 h -19.141 c -0.443,1.0677 -0.937,2.3177 -1.484,3.75 -0.521,1.4323 -0.977,2.7083 -1.367,3.8281 -0.495,1.4583 -0.795,2.513 -0.899,3.1641 -0.078,0.651 -0.117,1.1067 -0.117,1.3672 0,0.8333 0.625,1.5494 1.875,2.1484 1.276,0.5729 3.385,0.9896 6.328,1.25 v 3.0469 H 345.585 V 83.086 c 0.859,-0.0521 1.823,-0.1823 2.89,-0.3906 1.094,-0.2344 1.953,-0.5469 2.578,-0.9375 1.068,-0.625 1.967,-1.3933 2.696,-2.3047 0.755,-0.9115 1.38,-1.9922 1.875,-3.2422 3.021,-7.3177 6.041,-14.6484 9.062,-21.9922 3.047,-7.3438 6.407,-15.4427 10.078,-24.2969 h 7.813 c 5.104,12.5521 9.101,22.474 11.992,29.7657 2.891,7.2916 5.352,13.3333 7.383,18.125 0.338,0.7812 0.768,1.4973 1.289,2.1484 0.521,0.625 1.263,1.2239 2.227,1.7969 0.729,0.4166 1.575,0.7291 2.539,0.9375 0.963,0.2083 1.836,0.3385 2.617,0.3906 z M 381.522,63.711 373.475,43.6329 365.546,63.711 Z"
            id="text2" fill="#ffffff" aria-label="GAGA" />
         <rect width="70.382" height="28.3481" x="386.806" y="44.2635" fill="white"/>
      </g>
      <line stroke="white" stroke-width="4" stroke-linecap="round" stroke-dasharray="none" stroke-opacity="1" x1="2"
         y1="107.43793" x2="481.40671" y2="107.43793">
         <animate attributeName="x2" begin="0;panningAnimation.end" from="0" to="481.40671"
            keySplines="0.15,0.32,0.26,0.88" keyTimes="0;1" calcMode="spline" dur="1s" />
      </line>
      <animateMotion id="panningAnimation" begin="arrowSlideAnimation.end+0.3s" dur="1s" path="M0,0 h 483.40671"
         keySplines="0.73,0,0.55,0.98" keyTimes="0;1" calcMode="spline" />
   </g>
</svg>