<svg width="147" height="147" viewBox="0 0 147 147" fill="none" xmlns="http://www.w3.org/2000/svg">
<path id="Vector" d="M12.25 146.881C12.25 146.881 0 146.881 0 134.651C0 122.421 12.25 85.7323 73.5 85.7323C134.75 85.7323 147 122.421 147 134.651C147 146.881 134.75 146.881 134.75 146.881H12.25ZM73.5 73.5026C83.2467 73.5026 92.5942 69.6372 99.4862 62.7566C106.378 55.8761 110.25 46.5441 110.25 36.8135C110.25 27.0829 106.378 17.7509 99.4862 10.8704C92.5942 3.98984 83.2467 0.12439 73.5 0.12439C63.7533 0.12439 54.4058 3.98984 47.5138 10.8704C40.6219 17.7509 36.75 27.0829 36.75 36.8135C36.75 46.5441 40.6219 55.8761 47.5138 62.7566C54.4058 69.6372 63.7533 73.5026 73.5 73.5026Z" fill="#BABABA"/>
</svg>
